<svg width="48" height="48" viewBox="0 0 48 48" fill="none" xmlns="http://www.w3.org/2000/svg">
<circle cx="24" cy="24" r="24" fill="white"/>
<path d="M23.7443 13C20.8622 13 18.519 15.3431 18.519 18.2253C18.519 21.0524 20.7302 23.3405 23.6123 23.4395C23.7003 23.4285 23.7883 23.4285 23.8543 23.4395H23.9313C25.2837 23.3944 26.5655 22.8251 27.5057 21.852C28.4459 20.879 28.9709 19.5784 28.9696 18.2253C28.9696 15.3431 26.6264 13 23.7443 13Z" fill="black"/>
<path d="M29.3327 26.3647C26.2635 24.3186 21.2583 24.3186 18.1671 26.3647C16.77 27.2997 16 28.5648 16 29.9178C16 31.2709 16.77 32.525 18.1561 33.449C19.6962 34.4831 21.7203 35.0001 23.7444 35.0001C25.7685 35.0001 27.7926 34.4831 29.3327 33.449C30.7187 32.514 31.4888 31.2599 31.4888 29.8958C31.4778 28.5428 30.7187 27.2887 29.3327 26.3647Z" fill="black"/>
</svg>
